<?xml version="1.0" encoding="UTF-8" standalone="no"?>
<!-- Created with Inkscape (http://www.inkscape.org/) -->

<svg
   xmlns:dc="http://purl.org/dc/elements/1.1/"
   xmlns:cc="http://creativecommons.org/ns#"
   xmlns:rdf="http://www.w3.org/1999/02/22-rdf-syntax-ns#"
   xmlns:svg="http://www.w3.org/2000/svg"
   xmlns="http://www.w3.org/2000/svg"
   xmlns:xlink="http://www.w3.org/1999/xlink"
   xmlns:sodipodi="http://sodipodi.sourceforge.net/DTD/sodipodi-0.dtd"
   xmlns:inkscape="http://www.inkscape.org/namespaces/inkscape"
   width="128"
   height="128"
   viewBox="0 0 128 128"
   id="svg2"
   version="1.1"
   inkscape:version="0.91 r13725"
   sodipodi:docname="logo.svg"
   inkscape:export-filename="/home/jonathan/Desktop/rig.png"
   inkscape:export-xdpi="360"
   inkscape:export-ydpi="360">
  <defs
     id="defs4">
    <linearGradient
       inkscape:collect="always"
       id="linearGradient71339">
      <stop
         style="stop-color:#888a85;stop-opacity:1;"
         offset="0"
         id="stop71341" />
      <stop
         style="stop-color:#888a85;stop-opacity:0;"
         offset="1"
         id="stop71343" />
    </linearGradient>
    <inkscape:path-effect
       fuse_tolerance="0"
       vertical_pattern="false"
       prop_units="true"
       tang_offset="0"
       normal_offset="0"
       spacing="-0.4"
       scale_y_rel="false"
       prop_scale="1"
       copytype="repeated"
       pattern="#path8097"
       is_visible="true"
       id="path-effect8570"
       effect="skeletal" />
    <inkscape:path-effect
       fuse_tolerance="0"
       vertical_pattern="false"
       prop_units="true"
       tang_offset="0"
       normal_offset="0"
       spacing="-0.4"
       scale_y_rel="false"
       prop_scale="1"
       copytype="repeated"
       pattern="#path8097"
       is_visible="true"
       id="path-effect8496"
       effect="skeletal" />
    <inkscape:path-effect
       fuse_tolerance="0"
       vertical_pattern="false"
       prop_units="true"
       tang_offset="0"
       normal_offset="0"
       spacing="-0.4"
       scale_y_rel="false"
       prop_scale="1"
       copytype="repeated"
       pattern="#path8097"
       is_visible="true"
       id="path-effect8175"
       effect="skeletal" />
    <linearGradient
       inkscape:collect="always"
       id="linearGradient8121">
      <stop
         style="stop-color:#babdb6;stop-opacity:1"
         offset="0"
         id="stop8123" />
      <stop
         style="stop-color:#d3d7cf;stop-opacity:1"
         offset="1"
         id="stop8125" />
    </linearGradient>
    <inkscape:path-effect
       effect="skeletal"
       id="path-effect8101"
       is_visible="true"
       pattern="#path8097"
       copytype="repeated"
       prop_scale="1"
       scale_y_rel="false"
       spacing="-0.4"
       normal_offset="0"
       tang_offset="0"
       prop_units="true"
       vertical_pattern="false"
       fuse_tolerance="0" />
    <inkscape:path-effect
       effect="spiro"
       id="path-effect8091"
       is_visible="true" />
    <linearGradient
       inkscape:collect="always"
       xlink:href="#linearGradient8121"
       id="linearGradient8127"
       x1="59.5"
       y1="1031.8622"
       x2="30"
       y2="980.36218"
       gradientUnits="userSpaceOnUse"
       gradientTransform="matrix(1.0571721,0,0,1.1478962,-2.5584546,-147.72792)" />
    <filter
       inkscape:collect="always"
       style="color-interpolation-filters:sRGB"
       id="filter8483"
       x="-0.062361496"
       width="1.124723"
       y="-0.034471455"
       height="1.0689429">
      <feGaussianBlur
         inkscape:collect="always"
         stdDeviation="1.4785251"
         id="feGaussianBlur8485" />
    </filter>
    <mask
       maskUnits="userSpaceOnUse"
       id="mask8500">
      <path
         style="color:#000000;font-style:normal;font-variant:normal;font-weight:normal;font-stretch:normal;font-size:medium;line-height:normal;font-family:sans-serif;text-indent:0;text-align:start;text-decoration:none;text-decoration-line:none;text-decoration-style:solid;text-decoration-color:#000000;letter-spacing:normal;word-spacing:normal;text-transform:none;direction:ltr;block-progression:tb;writing-mode:lr-tb;baseline-shift:baseline;text-anchor:start;white-space:normal;clip-rule:nonzero;display:inline;overflow:visible;visibility:visible;opacity:1;isolation:auto;mix-blend-mode:normal;color-interpolation:sRGB;color-interpolation-filters:linearRGB;solid-color:#000000;solid-opacity:1;fill:#555753;fill-opacity:1;fill-rule:evenodd;stroke:none;stroke-width:11.5;stroke-linecap:round;stroke-linejoin:miter;stroke-miterlimit:4;stroke-dasharray:none;stroke-dashoffset:0;stroke-opacity:1;color-rendering:auto;image-rendering:auto;shape-rendering:auto;text-rendering:auto;enable-background:accumulate"
         d="m 49.193359,8.14757 c -2.379194,0.11295 -4.676857,0.30758 -6.841797,0.76562 -2.164939,0.45804 -4.75686,0.34205 -7.011718,4.31445 -3.41458,6.0155 -3.939289,14.00542 -4.626953,24.60938 -0.687665,10.60396 -0.823349,23.18133 -0.710938,35.29883 0.224823,24.23495 1.460938,46.63285 1.460938,46.63285 a 5.750575,5.750575 0 1 0 11.482421,-0.6329 c 0,0 -1.223514,-22.1964 -1.445312,-46.10542 -0.110899,-11.9545 0.03371,-24.33743 0.689453,-34.44922 0.593406,-9.15048 2.101739,-16.24359 2.855469,-18.44922 1.118185,-0.21399 2.786521,-0.40751 4.693359,-0.49805 4.067609,-0.19312 8.854765,-0.0391 11.503907,0.0801 8.317011,0.37411 19.464244,6.67869 23.451171,12.76172 1.993464,3.04152 2.35295,5.29011 1.453125,7.53516 -0.899824,2.24504 -3.773608,5.44475 -11.074218,8.3457 -14.154891,5.62455 -22.608761,12.30362 -26.123047,20.59766 -3.514287,8.29399 -1.029978,16.95099 3.410156,23.83199 8.880269,13.7621 25.760529,24.2132 33.320313,29.1875 a 5.750575,5.750575 0 1 0 6.322265,-9.6074 c -7.67653,-5.0511 -23.437967,-15.6772 -29.980469,-25.8164 -3.27125,-5.0696 -4.193551,-9.0709 -2.482422,-13.10937 1.71113,-4.03842 7.116359,-9.36672 19.779297,-14.39843 9.026558,-3.58677 14.989859,-8.47946 17.503907,-14.75196 2.514047,-6.2725 0.863941,-12.96679 -2.511719,-18.11718 C 87.559227,15.87218 74.531171,8.80018 61.759766,8.22571 58.959364,8.09974 53.951747,7.92167 49.193359,8.14761 Z"
         id="path8502"
         inkscape:connector-curvature="0" />
    </mask>
    <clipPath
       clipPathUnits="userSpaceOnUse"
       id="clipPath8524">
      <path
         inkscape:connector-curvature="0"
         id="path8526"
         d="m 49.193359,8.14757 c -2.379194,0.11295 -4.676857,0.30758 -6.841797,0.76562 -2.164939,0.45804 -4.75686,0.34205 -7.011718,4.31445 -3.41458,6.0155 -3.939289,14.00542 -4.626953,24.60938 -0.687665,10.60396 -0.82335,23.18133 -0.710938,35.29883 0.112411,12.11745 1.273141,36.23845 1.610273,44.86735 -0.160978,2.4684 9.056458,6.7768 11.258205,3.1726 0.244158,-0.6235 0.103757,-1.3079 0.07488,-2.04 0,0 -1.223514,-22.1964 -1.445312,-46.10542 -0.110899,-11.9545 0.03371,-24.33743 0.689453,-34.44922 0.593406,-9.15048 2.101739,-16.24359 2.855469,-18.44922 1.118185,-0.21399 2.786521,-0.40751 4.693359,-0.49805 4.067609,-0.19312 8.854765,-0.0391 11.503907,0.0801 8.317011,0.37411 19.464244,6.67869 23.451171,12.76172 1.993464,3.04152 2.35295,5.29011 1.453125,7.53516 -0.899824,2.24504 -3.773608,5.44475 -11.074218,8.3457 -14.154891,5.62455 -22.608761,12.30362 -26.123047,20.59766 -3.514287,8.29397 -1.029956,16.95097 3.410156,23.83197 8.259154,12.7995 23.438345,22.735 31.603183,28.0641 5.051908,0.082 8.818799,-5.3144 8.039395,-8.484 C 84.325422,107.3152 68.563985,96.6891 62.021483,86.5499 58.750233,81.4803 57.827932,77.479 59.539061,73.44055 61.250191,69.40213 66.65542,64.07383 79.318358,59.04212 88.344916,55.45535 94.308217,50.56266 96.822265,44.29016 99.336312,38.01766 97.686206,31.32337 94.310546,26.17298 87.559226,15.87218 74.53117,8.80018 61.759765,8.22571 58.959363,8.09974 53.951746,7.92167 49.193358,8.14761 Z"
         style="color:#000000;font-style:normal;font-variant:normal;font-weight:normal;font-stretch:normal;font-size:medium;line-height:normal;font-family:sans-serif;text-indent:0;text-align:start;text-decoration:none;text-decoration-line:none;text-decoration-style:solid;text-decoration-color:#000000;letter-spacing:normal;word-spacing:normal;text-transform:none;direction:ltr;block-progression:tb;writing-mode:lr-tb;baseline-shift:baseline;text-anchor:start;white-space:normal;clip-rule:nonzero;display:inline;overflow:visible;visibility:visible;opacity:0.76999996;isolation:auto;mix-blend-mode:normal;color-interpolation:sRGB;color-interpolation-filters:linearRGB;solid-color:#000000;solid-opacity:1;fill:#555753;fill-opacity:1;fill-rule:evenodd;stroke:none;stroke-width:11.5;stroke-linecap:round;stroke-linejoin:miter;stroke-miterlimit:4;stroke-dasharray:none;stroke-dashoffset:0;stroke-opacity:1;color-rendering:auto;image-rendering:auto;shape-rendering:auto;text-rendering:auto;enable-background:accumulate"
         sodipodi:nodetypes="csssscccsscscsssssccsssssscc" />
    </clipPath>
    <filter
       inkscape:collect="always"
       style="color-interpolation-filters:sRGB"
       id="filter8900"
       x="-0.062032097"
       width="1.1240642"
       y="-0.034572936"
       height="1.0691459">
      <feGaussianBlur
         inkscape:collect="always"
         stdDeviation="1.5503248"
         id="feGaussianBlur8902" />
    </filter>
    <clipPath
       clipPathUnits="userSpaceOnUse"
       id="clipPath8908">
      <path
         sodipodi:nodetypes="csssscccsscscsssssccsssssscc"
         style="color:#000000;font-style:normal;font-variant:normal;font-weight:normal;font-stretch:normal;font-size:medium;line-height:normal;font-family:sans-serif;text-indent:0;text-align:start;text-decoration:none;text-decoration-line:none;text-decoration-style:solid;text-decoration-color:#000000;letter-spacing:normal;word-spacing:normal;text-transform:none;direction:ltr;block-progression:tb;writing-mode:lr-tb;baseline-shift:baseline;text-anchor:start;white-space:normal;clip-rule:nonzero;display:inline;overflow:visible;visibility:visible;opacity:0.76999996;isolation:auto;mix-blend-mode:normal;color-interpolation:sRGB;color-interpolation-filters:linearRGB;solid-color:#000000;solid-opacity:1;fill:#555753;fill-opacity:1;fill-rule:evenodd;stroke:none;stroke-width:11.5;stroke-linecap:round;stroke-linejoin:miter;stroke-miterlimit:4;stroke-dasharray:none;stroke-dashoffset:0;stroke-opacity:1;color-rendering:auto;image-rendering:auto;shape-rendering:auto;text-rendering:auto;enable-background:accumulate"
         d="m 49.193359,932.50977 c -2.379194,0.11295 -4.676857,0.30758 -6.841797,0.76562 -2.164939,0.45804 -4.75686,0.34205 -7.011718,4.31445 -3.41458,6.0155 -3.939289,14.00542 -4.626953,24.60938 -0.687665,10.60396 -0.82335,23.18133 -0.710938,35.29883 0.112411,12.11745 1.273141,36.23845 1.610273,44.86735 -0.160978,2.4684 9.056458,6.7768 11.258205,3.1726 0.244158,-0.6235 0.103757,-1.3079 0.07488,-2.04 0,0 -1.223514,-22.1964 -1.445312,-46.10542 -0.110899,-11.9545 0.03371,-24.33743 0.689453,-34.44922 0.593406,-9.15048 2.101739,-16.24359 2.855469,-18.44922 1.118185,-0.21399 2.786521,-0.40751 4.693359,-0.49805 4.067609,-0.19312 8.854765,-0.0391 11.503907,0.0801 8.317011,0.37411 19.464244,6.67869 23.451171,12.76172 1.993464,3.04152 2.35295,5.29011 1.453125,7.53516 -0.899824,2.24504 -3.773608,5.44475 -11.074218,8.3457 -14.154891,5.62455 -22.608761,12.30362 -26.123047,20.59766 -3.514287,8.29397 -1.029956,16.95097 3.410156,23.83197 8.259154,12.7995 23.438345,22.735 31.603183,28.0641 5.051908,0.082 8.818799,-5.3144 8.039395,-8.484 -7.67653,-5.0511 -23.437967,-15.6772 -29.980469,-25.8164 -3.27125,-5.0696 -4.193551,-9.0709 -2.482422,-13.10935 1.71113,-4.03842 7.116359,-9.36672 19.779297,-14.39843 9.026558,-3.58677 14.989859,-8.47946 17.503907,-14.75196 2.514047,-6.2725 0.863941,-12.96679 -2.511719,-18.11718 -6.75132,-10.3008 -19.779376,-17.3728 -32.550781,-17.94727 -2.800402,-0.12597 -7.808019,-0.30404 -12.566407,-0.0781 z"
         id="path8910"
         inkscape:connector-curvature="0" />
    </clipPath>
    <linearGradient
       inkscape:collect="always"
       xlink:href="#linearGradient71339"
       id="linearGradient71345"
       x1="1260.7545"
       y1="1020.9147"
       x2="577.58386"
       y2="-163.39053"
       gradientUnits="userSpaceOnUse" />
    <linearGradient
       inkscape:collect="always"
       xlink:href="#linearGradient71339"
       id="linearGradient71389"
       gradientUnits="userSpaceOnUse"
       x1="1260.7545"
       y1="1020.9147"
       x2="577.58386"
       y2="-163.39053" />
  </defs>
  <sodipodi:namedview
     id="base"
     pagecolor="#ffffff"
     bordercolor="#666666"
     borderopacity="1.0"
     inkscape:pageopacity="0.0"
     inkscape:pageshadow="2"
     inkscape:zoom="1"
     inkscape:cx="64"
     inkscape:cy="64"
     inkscape:document-units="px"
     inkscape:current-layer="layer1"
     showgrid="false"
     units="px"
     inkscape:window-width="956"
     inkscape:window-height="1044"
     inkscape:window-x="960"
     inkscape:window-y="16"
     inkscape:window-maximized="0" />
  <metadata
     id="metadata7">
    <rdf:RDF>
      <cc:Work
         rdf:about="">
        <dc:format>image/svg+xml</dc:format>
        <dc:type
           rdf:resource="http://purl.org/dc/dcmitype/StillImage" />
        <dc:title></dc:title>
      </cc:Work>
    </rdf:RDF>
  </metadata>
  <g
     inkscape:label="Logo"
     inkscape:groupmode="layer"
     id="layer1"
     transform="translate(0,-924.3622)">
    <g
       id="g71391"
       transform="matrix(1.0837961,0,0,1.082209,-4.2414036,-81.440004)">
      <path
         style="fill:#e9b96e;fill-rule:evenodd;stroke:#c17d11;stroke-width:0.92335916px;stroke-linecap:butt;stroke-linejoin:miter;stroke-opacity:1"
         d="m 81.530426,1040.1896 c 2.708196,-1.8011 6.102433,-6.1344 10.223737,-2.9965 3.969232,1.3416 -5.544256,7.1957 -5.544438,7.1959 -2.378926,1.2625 -2.88003,-0.6671 -5.429046,-1.9495 z"
         id="path8171"
         inkscape:connector-curvature="0"
         sodipodi:nodetypes="ccccc" />
      <path
         sodipodi:nodetypes="ccccc"
         inkscape:connector-curvature="0"
         id="path8097-3"
         d="m 31.916318,1039.3847 c 2.913879,1.4449 11.186954,0.9609 10.529854,6.0993 -3.337516,2.8133 -8.762486,-1.139 -8.762486,-1.139 -2.282857,-1.4289 -1.603431,-2.1111 -1.767368,-4.9598 z"
         style="fill:#e9b96e;fill-rule:evenodd;stroke:#c17d11;stroke-width:0.92335916px;stroke-linecap:butt;stroke-linejoin:miter;stroke-opacity:1" />
      <path
         inkscape:original-d="m 37.204765,1043.8145 c 0,0 -4.922291,-89.18995 3.135809,-103.38599 1.567959,-2.76229 15.711201,-2.34179 21.160744,-2.09666 21.088422,0.94858 48.347872,26.75422 15.693535,39.72966 -53.635657,21.31252 -3.590446,53.44599 11.645867,63.47139"
         inkscape:path-effect="#path-effect8101"
         sodipodi:nodetypes="csssc"
         inkscape:connector-curvature="0"
         id="path8068"
         d="m 42.361671,1043.6528 c -1.33169,-3.0803 -10.104446,-2.5332 -10.385423,-4.5423 -0.280934,-2.0084 -0.103168,-5.616 -0.103168,-5.616 0,0 9.618498,1.7193 10.289236,3.7957 0.643477,1.992 0.199515,6.3626 0.199515,6.3626 z m -0.19664,-6.2709 c -1.331735,-3.0821 -10.104799,-2.5482 -10.385784,-4.5576 -0.280941,-2.0087 -0.103165,-5.6159 -0.103165,-5.6159 0,0 9.618834,1.7336 10.289593,3.8109 0.643498,1.9929 0.199515,6.3626 0.199515,6.3626 z m -0.196641,-6.2709 c -1.331778,-3.084 -10.10515,-2.5632 -10.386143,-4.573 -0.280949,-2.009 -0.103162,-5.6157 -0.103162,-5.6157 0,0 9.619168,1.7478 10.289949,3.8261 0.643518,1.9937 0.199516,6.3626 0.199516,6.3626 z m -0.196641,-6.2709 c -1.331821,-3.0859 -10.105502,-2.5782 -10.386502,-4.5883 -0.280957,-2.0093 -0.10316,-5.6157 -0.10316,-5.6157 0,0 9.619504,1.7622 10.290307,3.8414 0.643538,1.9946 0.199515,6.3625 0.199515,6.3625 z m -0.196641,-6.271 c -1.331864,-3.0876 -10.105853,-2.5931 -10.386861,-4.6035 -0.280965,-2.0097 -0.103158,-5.6156 -0.103158,-5.6156 0,0 9.619839,1.7765 10.290664,3.8565 0.643559,1.9955 0.199515,6.3626 0.199515,6.3626 z m -0.196641,-6.2709 c -1.331907,-3.0895 -10.106205,-2.6081 -10.387221,-4.6188 -0.280972,-2.01 -0.103154,-5.6155 -0.103154,-5.6155 0,0 9.620174,1.7907 10.29102,3.8717 0.643579,1.9963 0.199515,6.3626 0.199515,6.3626 z m -0.196641,-6.2709 c -1.33195,-3.0914 -10.106556,-2.6231 -10.38758,-4.6341 -0.152765,-1.093 -0.169898,-2.65775 -0.153731,-3.85791 0.03547,-1.01217 0.09016,-1.76682 0.09016,-1.76682 0,0 3.463997,0.66363 6.360894,1.63585 1.934489,0.64461 3.623187,1.42958 3.890899,2.26035 0.6436,1.99723 0.199515,6.36263 0.199515,6.36263 z m -0.19664,-6.27096 c -0.517078,-1.20077 -2.15647,-1.86684 -3.984915,-2.35016 -2.862099,-0.76088 -6.205236,-1.07463 -6.34752,-2.31267 -0.232627,-2.02362 0.05006,-5.65493 0.05006,-5.65493 0,0 9.567435,1.92017 10.177877,3.97377 0.295163,0.99294 0.306813,2.57658 0.246361,3.91005 -0.03053,1.34167 -0.141698,2.43394 -0.141698,2.43394 z m -0.10417,-6.25282 c -1.244084,-3.0652 -10.035576,-2.72377 -10.250945,-4.74229 -0.216823,-2.03158 0.101864,-5.66753 0.101864,-5.66753 0,0 9.548029,2.04086 10.139576,4.08914 0.572813,1.98338 0.0097,6.32068 0.0097,6.32068 z m -0.0099,-6.22973 c -1.216156,-3.06371 -10.011615,-2.83926 -10.204681,-4.85987 -0.194943,-2.03961 0.170361,-5.67847 0.170361,-5.67847 0,0 9.520052,2.18963 10.086484,4.23372 0.549747,1.98385 -0.052,6.30462 -0.052,6.30462 z m 0.05072,-6.21391 c -1.178777,-3.06495 -9.976454,-2.98401 -10.141335,-5.00669 -0.166982,-2.04772 0.255546,-5.68778 0.255546,-5.68778 0,0 9.483445,2.36654 10.018601,4.40755 0.520638,1.9856 -0.132652,6.28692 -0.132652,6.28692 z m 0.130069,-6.19648 c -1.131995,-3.06882 -9.930044,-3.15811 -10.060904,-5.18276 -0.132937,-2.05587 0.357417,-5.69543 0.357417,-5.69543 0,0 9.438141,2.57159 9.935928,4.61059 0.485507,1.98866 -0.232281,6.2676 -0.232281,6.2676 z m 0.228127,-6.17745 c -1.075867,-3.07528 -9.872333,-3.36163 -9.963391,-5.38807 -0.01453,-0.32303 -0.01364,-0.68463 -0.0014,-1.06536 0.06411,-2.03824 0.483959,-4.64834 0.483959,-4.64834 0,0 9.383115,2.83027 9.832171,4.85363 0.03228,0.14545 0.05779,0.30258 0.07737,0.46898 0.252268,2.11831 -0.428592,5.77916 -0.428592,5.77916 z m 0.34517,-6.15807 c -1.007958,-3.08995 -9.807606,-3.581 -9.837907,-5.64026 -0.03082,-2.09016 0.719324,-5.79619 0.719324,-5.79619 0,0 9.240943,3.31746 9.618045,5.2553 0.378884,1.94695 -0.499303,6.18116 -0.499303,6.18116 z m 0.490589,-6.09321 c -0.463308,-1.5467 -2.871345,-2.52084 -5.16016,-3.38067 -2.287441,-0.85932 -4.465726,-1.60395 -4.423633,-2.67203 0.02622,-0.66589 0.130476,-1.47491 0.272951,-2.29046 0.311492,-1.79728 0.872943,-3.64629 0.872943,-3.64629 0,0 1.750637,0.87797 3.738483,1.94548 1.95664,1.05075 4.249363,2.33405 5.093281,3.328 0,0 0,0 0,0 0.208693,0.24557 0.339406,0.47972 0.36985,0.6986 0.265303,1.90733 -0.763555,6.01738 -0.763555,6.01738 z m 0.749893,-5.93203 c -0.06746,-0.27661 -0.19707,-0.53808 -0.377221,-0.7875 -0.903513,-1.25234 -3.173456,-2.24211 -5.143389,-3.16666 -1.97952,-0.92905 -3.718182,-1.81565 -3.558842,-2.8588 0.05413,-0.35443 0.13563,-0.74889 0.240198,-1.1664 0.367357,-1.59243 1.084502,-3.2111 1.912048,-4.59355 1.368728,-1.82532 2.116381,-2.23755 2.116381,-2.23755 0,0 -0.188546,1.98465 0.813013,3.90037 1.899719,2.06664 5.165619,4.54391 5.194936,5.35536 0.0047,0.12872 -5.65e-4,0.26854 -0.01533,0.41889 -0.07902,1.17821 -0.694727,3.43998 -0.980598,4.44533 -0.12008,0.42481 -0.201036,0.69053 -0.201036,0.69053 z m 1.174317,-5.48206 c -0.21257,-1.4698 -4.081493,-3.82286 -5.888114,-5.83445 -0.573554,-1.46985 -0.09002,-3.9128 1.198967,-4.2615 0.0086,-0.005 0.0173,-0.009 0.02602,-0.0134 1.056713,-0.53556 2.143401,-0.88878 3.097369,-1.05738 2.121809,-0.42046 4.053448,-0.43076 4.053448,-0.43076 0,0 -1.049253,7.90675 -2.009116,10.09335 0,0 0,0 0,0 -0.115566,0.26262 -0.226499,0.44907 -0.335441,0.53837 -0.222444,0.18234 -0.417167,0.29561 -0.450293,0.3746 -0.004,0.27539 0.348085,-0.18615 1.31569,-1.32851 -0.423856,0.58891 -1.008379,1.91974 -1.008379,1.91974 z m 0.09063,-0.95328 c 0.122235,-0.13795 0.253157,-0.33351 0.382419,-0.57701 0.683866,-1.28599 0.884061,-3.67795 1.147063,-5.89019 0.259871,-2.18591 0.588315,-4.13395 1.605456,-4.31086 0.58638,-0.102 1.264915,-0.16174 1.955102,-0.19094 1.943266,-0.0942 3.979664,0.0464 3.979664,0.0464 0,0 -1.764286,8.67792 -3.497749,10.10389 -0.09747,0.0794 -0.195717,0.13852 -0.294711,0.17479 -1.176245,0.43096 -4.086973,0.54814 -4.780498,0.60727 -0.341477,0.0413 -0.496706,0.0368 -0.496706,0.0368 z m 5.190436,-0.63918 c 0.132482,-0.0643 0.258611,-0.14404 0.378756,-0.23773 1.221735,-0.9609 1.771852,-3.42418 2.265397,-5.68952 0.492854,-2.26216 0.929947,-4.32585 1.936709,-4.43293 2.125082,-0.22607 5.802751,0.17922 5.802751,0.17922 0,0 -2.380487,9.50218 -4.3291,10.06535 -1.483097,0.42864 -4.69527,0.2112 -5.663167,0.14307 -0.248308,-0.0153 -0.391338,-0.0273 -0.391338,-0.0273 z m 5.96635,-0.11667 c 1.501734,-0.60099 2.261515,-3.08123 2.904663,-5.44488 0.642181,-2.36009 1.166521,-4.59797 2.20325,-4.66589 0.400162,-0.0262 0.858037,-0.0298 1.337616,-0.0177 2.327377,0.0777 4.941921,0.72928 4.941921,0.72928 0,0 -1.019599,2.23461 -2.128433,4.55965 -1.096151,2.29844 -2.286908,4.77559 -3.106584,5.02147 -0.05576,0.0167 -0.113421,0.0323 -0.172789,0.0469 -2.069054,0.399 -5.979646,-0.22866 -5.979646,-0.22866 z m 6.076671,0.17859 c 1.289635,-0.55202 2.221427,-2.95009 3.128275,-5.21782 0.903943,-2.26046 1.785374,-4.4105 2.954557,-4.28436 2.376861,0.25639 6.115654,1.83006 6.115654,1.83006 0,0 -1.383043,2.03814 -2.896606,4.13339 -1.501666,2.07877 -3.14202,4.27295 -4.030614,4.33997 -0.852664,0.0643 -2.244185,-0.212 -3.288887,-0.41536 -1.08995,-0.21216 -1.982386,-0.38572 -1.982386,-0.38572 z m 5.195493,0.78173 c 1.414798,-0.2663 2.784007,-2.45112 4.089182,-4.52725 1.300403,-2.06854 2.539311,-4.0401 3.648908,-3.72452 2.298051,0.65352 4.815684,2.21819 5.559768,2.70276 0.051,0.032 0.07816,0.0494 0.07816,0.0494 0,0 -0.0953,0.10601 -0.265972,0.29219 -1.149599,1.2505 -6.501963,7.14719 -7.901025,7.01591 -1.797674,-0.16867 -5.209058,-1.80829 -5.209058,-1.80829 z m 5.135108,1.77611 c 1.268977,-0.018 2.693414,-1.44405 4.081562,-3.01297 1.385492,-1.56591 2.739535,-3.29152 3.825588,-3.84733 0.374945,-0.1946 0.72033,-0.25271 1.022655,-0.11992 2.091151,0.91846 5.231904,3.54934 5.231904,3.54934 0,0 -1.924895,1.53554 -3.991871,3.0975 -2.053312,1.55163 -4.273853,3.17283 -5.177578,2.95116 -0.541733,-0.13287 -1.19947,-0.44596 -1.854547,-0.80453 -1.539811,-0.798 -3.137777,-1.81311 -3.137777,-1.81311 z m 4.923477,2.57477 c 1.466169,0.19667 3.434435,-1.51105 5.290774,-3.1114 1.854823,-1.59905 3.619599,-3.12146 4.594849,-2.47367 1.96796,1.3071 4.631232,4.5647 4.631232,4.5647 0,0 -2.194285,1.09987 -4.502626,2.2381 -2.283554,1.126 -4.742839,2.35002 -5.556352,2.02117 -1.556721,-0.62927 -4.457961,-3.23876 -4.457961,-3.23876 z m 4.399287,3.18817 c 1.365669,0.3834 3.588596,-0.94613 5.696002,-2.16068 2.106627,-1.2141 4.136078,-2.34848 4.988617,-1.49049 0.70091,0.70535 1.444351,1.67529 2.1042,2.70563 0,0 0,0 0,0 0.976097,1.51761 1.571236,3.05692 1.571236,3.05692 0,0 -1.482767,0.25046 -3.336467,0.61979 -1.256976,0.25043 -4.659942,0.99783 -5.590135,1.14413 -10e-7,0 -10e-7,0 -10e-7,0 -0.873961,0.1314 -1.547146,0.15593 -1.869718,-0.0639 -0.6485,-0.44186 -1.547443,-1.49108 -2.23149,-2.27736 -0.72104,-0.82881 -1.332349,-1.53396 -1.332349,-1.53396 z m 3.520757,3.75197 c 0.463904,0.24227 1.089824,0.2709 1.823372,0.18187 1.536271,-0.19785 3.669473,-0.93548 5.488155,-1.38394 1.831935,-0.45174 3.446425,-0.63197 3.946152,0.32182 0.640065,1.22156 1.135279,2.82864 1.395188,4.4838 0.241564,1.65576 0.133388,2.95926 0.133388,2.95926 0,0 -4.249026,-1.24193 -7.395443,-1.70493 0,0 0,0 0,0 -1.557442,-0.23971 -2.851704,-0.38092 -3.17139,-0.73931 -0.502727,-0.56359 -1.252675,-2.16852 -1.697123,-3.08395 -0.298743,-0.60524 -0.522427,-1.03453 -0.522427,-1.03453 z m 2.200351,4.06086 c 0.543539,0.46808 1.733307,0.64723 3.114836,0.81008 1.519654,0.1697 3.440051,0.34583 4.885026,0.69772 1.474578,0.3591 2.61179,0.94052 2.631156,1.94507 0.03265,1.69189 -0.39384,3.60241 -1.139081,5.33888 -0.609949,1.32489 -1.200706,2.18275 -1.200706,2.18275 0,0 -2.510054,-2.67484 -4.869648,-4.61578 -1.487508,-1.21926 -2.980004,-2.18621 -3.10897,-2.61301 -0.167902,-0.55564 -0.153393,-1.72064 -0.190816,-2.41866 -0.02377,-0.71207 -0.121949,-1.327 -0.121949,-1.327 z m 0.321736,3.69459 c 0.316965,0.67628 1.72853,1.6363 3.165612,2.69049 2.363355,1.73925 5.201762,3.8766 4.39478,5.40905 -1.308795,2.48551 -3.514215,4.30442 -4.643513,5.10878 -0.143498,0.10391 -0.224863,0.16049 -0.224863,0.16049 0,0 -0.16829,-0.36434 -0.437578,-0.95523 0,0 0,0 0,0 -0.910605,-2.01897 -4.055391,-8.42601 -3.880244,-9.0254 0.15923,-0.54493 0.82645,-1.68336 1.059554,-2.19344 0.336193,-0.6084 0.566094,-1.19477 0.566094,-1.19477 z m -1.586231,3.34008 c -0.144491,0.95523 0.732029,2.6152 1.705628,4.36066 0.969411,1.73795 2.072017,3.60088 2.281213,4.8882 0.09754,0.57126 0.02486,1.03828 -0.297762,1.33523 -1.859316,1.71147 -5.553998,3.42232 -5.553998,3.42232 0,0 -2.528427,-9.63311 -1.685819,-10.78894 0.319165,-0.43781 0.851585,-0.91776 1.368711,-1.36947 1.088798,-0.98285 2.181901,-1.8481 2.181901,-1.8481 z m -3.489126,3.1753 c -0.682756,1.20763 0.02048,3.67154 0.682979,6.03463 0.658801,2.34988 1.276695,4.59598 0.296537,5.20507 -1.107163,0.68805 -2.596146,1.30119 -3.881738,1.73918 -0.915226,0.3213 -1.600948,0.54383 -1.600948,0.54383 0,0 -0.702102,-3.49107 -0.794476,-6.57222 -0.08281,-2.00703 -0.02869,-3.83326 0.536916,-4.34642 0.675004,-0.61241 1.966904,-1.24825 2.945732,-1.72527 1.009618,-0.49202 1.814907,-0.87893 1.814907,-0.87893 z m -4.686114,2.57057 c -0.775543,0.871 -0.772154,2.59907 -0.580795,4.45727 0.279913,2.97514 1.229084,6.2284 0.203281,6.81093 -1.678639,0.95332 -4.801113,2.14017 -4.801113,2.14017 0,0 -0.687057,-2.33504 -1.086408,-4.88935 -0.400239,-2.56 -0.49905,-5.31673 0.4151,-6.06028 0.878175,-0.7143 2.411288,-1.35101 3.760311,-1.79863 1.153251,-0.39431 2.089558,-0.66026 2.089558,-0.66026 z m -5.760671,2.41942 c -1.27897,1.24736 -0.876,3.8457 -0.347737,6.23535 0.529482,2.39516 1.17805,4.58074 0.412763,5.10123 -1.540211,1.04761 -4.412403,2.50451 -4.412403,2.50451 0,0 -0.966411,-2.22529 -1.637511,-4.71326 -0.673106,-2.4954 -1.028059,-5.22853 -0.154633,-6.07539 1.696918,-1.64532 6.139456,-3.05258 6.139456,-3.05258 z m -6.052148,3.00368 c -1.199897,1.38628 -0.542943,3.93249 0.236933,6.24192 0.782501,2.31721 1.680972,4.40009 1.014533,4.99087 -0.489878,0.43429 -1.251805,1.00671 -1.88222,1.48456 0,0 0,0 0,0 -1.033323,0.80755 -1.941095,1.50334 -1.941095,1.50334 0,0 -3.358171,-5.2863 -3.659794,-8.62367 0,0 0,0 0,0 -0.07626,-0.78848 0.0092,-1.43341 0.311105,-1.80322 1.545442,-1.89299 5.92046,-3.79394 5.92046,-3.79394 z m -5.837555,3.7331 c -0.347935,0.5092 -0.474996,1.12595 -0.445532,1.79852 0.06227,1.69302 1.129046,3.71748 2.05927,5.442 0.931485,1.72687 1.724994,3.14513 1.299032,3.68453 -0.37792,0.4786 -1.441854,1.63158 -1.869208,2.1235 -0.5777,0.66498 -0.978892,1.19244 -0.978892,1.19244 0,0 -1.854728,-1.53255 -3.433202,-3.567 -1.585757,-2.04383 -2.82736,-4.5594 -2.174384,-5.76992 0.852556,-1.58053 2.790922,-3.16396 4.29024,-4.13166 0.732131,-0.4837 1.252581,-0.77254 1.252581,-0.77254 z m -5.468836,4.82175 c -0.824579,1.86366 0.704273,4.07785 2.301541,5.89623 1.614034,1.83746 3.29998,3.31265 3.045652,3.98183 -0.0694,0.18262 -0.434282,1.06288 -0.531504,1.31313 -0.473339,1.06139 -0.828626,2.28041 -0.828626,2.28041 0,0 -1.967908,-0.59116 -4.006244,-1.73479 -2.079824,-1.1669 -4.059829,-2.85522 -4.394486,-4.45621 0,0 0,0 0,0 -0.05081,-0.24808 -0.05477,-0.48216 -0.0063,-0.69406 0.316229,-1.3832 1.291664,-3.04915 2.375428,-4.41127 1.04509,-1.31352 2.044443,-2.17537 2.044443,-2.17537 z m -4.368441,6.47904 c -0.04254,0.27779 -0.04168,0.55197 -0.0027,0.81957 0.296529,1.95654 2.481351,3.32512 4.470441,4.32863 2.010933,1.01454 3.872971,1.68455 3.892845,2.31282 0.08578,2.7084 -0.128016,1.3183 0.06896,3.6165 0.01351,0.184 0.02358,0.2926 0.02358,0.2926 0,0 -0.69401,0.044 -1.732555,0.028 -2.882205,-0.028 -8.235211,-0.8541 -8.671105,-3.2615 -0.448547,-2.47727 0.630555,-5.64124 1.570298,-7.47692 0.228837,-0.41832 0.38012,-0.65967 0.38012,-0.65967 z m -1.94554,8.01622 c 0.417971,1.6391 2.141294,2.4105 3.992698,2.7756 1.800727,0.3551 3.967026,0.3703 5.205076,0.5065 0.746804,0.091 1.254,0.233 1.3769,0.5441 0.522628,1.3231 1.534113,4.1409 1.534113,4.1409 0,0 -9.299703,2.8423 -10.944264,0.096 -0.447881,-0.7479 -0.821118,-1.8553 -1.06351,-3.0751 -0.466236,-2.4853 -0.101172,-4.9879 -0.101172,-4.9879 z m 1.130406,7.9552 c 1.183421,1.6731 3.860186,1.4148 6.240346,0.9507 2.405749,-0.469 4.576783,-1.1529 5.065993,-0.4771 0.360168,0.4975 0.818024,1.2566 1.216965,1.9306 0,0 0,0 0,0 0.697795,1.1632 1.35381,2.2329 1.35381,2.2329 0,0 -5.752908,2.7521 -9.041987,2.7281 0,0 -10e-7,0 -10e-7,0 -0.748257,-0.01 -1.349792,-0.1562 -1.68331,-0.4849 -0.885739,-0.8727 -1.732361,-2.4521 -2.322749,-4.023 -0.572905,-1.5243 -0.829219,-2.8573 -0.829219,-2.8573 z m 3.09724,6.79 c 0.461943,0.3861 1.038554,0.5713 1.67623,0.6149 3.446358,0.2237 8.433239,-3.4524 9.521627,-2.3308 1.235967,1.2736 3.244601,3.9131 3.244601,3.9131 0,0 -8.220458,5.1374 -10.335289,3.5838 -1.280053,-0.9403 -2.636278,-3.0071 -3.45708,-4.5039 -0.41204,-0.7424 -0.650227,-1.277 -0.650227,-1.277 z m 4.044052,5.7027 c 1.565974,0.9534 3.955265,-0.1402 6.097047,-1.2992 2.14951,-1.1632 4.064539,-2.3963 4.781228,-1.8091 1.420151,1.1635 3.732503,3.6808 3.732503,3.6808 0,0 -7.818677,5.8237 -9.988774,4.5658 -1.981461,-1.1486 -4.622128,-5.1382 -4.622128,-5.1382 z m 4.55259,5.0682 c 1.628341,0.7595 3.901491,-0.5659 5.938838,-1.9212 2.042875,-1.359 3.860214,-2.7534 4.643688,-2.2053 1.557974,1.0897 4.065102,3.5277 4.065102,3.5277 0,0 -7.504264,6.236 -9.676883,5.2089 -2.017584,-0.9539 -4.970858,-4.61 -4.970858,-4.61 z m 4.89756,4.5469 c 1.655305,0.6059 3.831821,-0.8734 5.782038,-2.3507 1.955489,-1.4814 3.694709,-2.9684 4.519417,-2.4421 0.109895,0.07 0.223787,0.1462 0.340654,0.2271 1.621676,1.1063 3.909666,3.1184 3.909666,3.1184 0,0 -7.214603,6.5351 -9.399575,5.6354 -0.314858,-0.1296 -0.659194,-0.3199 -1.015835,-0.5503 -1.909336,-1.2147 -4.13647,-3.6377 -4.13647,-3.6377 z m 5.076963,4.1293 c 1.666108,0.5134 3.760194,-1.0531 5.639414,-2.6136 1.882078,-1.5629 3.553395,-3.1222 4.404023,-2.6376 1.694135,0.9651 4.428789,3.2107 4.428789,3.2107 0,0 -7.022853,6.7611 -9.189308,5.9769 -2.035233,-0.7366 -5.283017,-3.9363 -5.283017,-3.9363 z m 5.206256,3.8814 c 3.42252,0.8902 8.022179,-6.5827 9.851143,-5.6098 1.745909,0.9286 4.558323,3.1433 4.558323,3.1433 0,0 -6.921258,6.8816 -9.056836,6.1804 -2.027216,-0.6657 -5.352723,-3.7138 -5.352723,-3.7138 z"
         style="fill:#e9b96e;fill-rule:evenodd;stroke:#c17d11;stroke-width:0.92335916px;stroke-linecap:butt;stroke-linejoin:miter;stroke-opacity:1" />
      <path
         clip-path="url(#clipPath8908)"
         style="fill:none;fill-rule:evenodd;stroke:#f8dfb5;stroke-width:0.92335916px;stroke-linecap:butt;stroke-linejoin:miter;stroke-opacity:1;filter:url(#filter8900)"
         d="m 33.286398,1041.5288 c 0,0 -4.922291,-91.14915 3.135809,-105.34519 1.567959,-2.76229 15.711201,-2.34179 21.160744,-2.09666 10.454541,0.47026 26.0431,3.84929 31.492358,11.97921 m -3.913697,20.35491 c -2.899645,2.86788 -6.848794,5.44137 -11.885126,7.39554 -12.529701,4.86171 -21.967151,12.01763 -20.813474,18.61272 4.014526,22.94937 33.040109,41.47477 39.316485,45.83827"
         id="path8568"
         inkscape:connector-curvature="0"
         sodipodi:nodetypes="cssccssc" />
      <path
         mask="url(#mask8500)"
         sodipodi:nodetypes="sccssssccssssscccsscssssccsssscc"
         inkscape:connector-curvature="0"
         id="path8173"
         transform="translate(0,924.3622)"
         d="m 55.820312,18.046875 c -1.12757,0.01217 -2.268148,0.04101 -3.378906,0.09375 l 0,0.002 c -2.221516,0.10547 -4.324001,0.303193 -6.001953,0.658203 -1.677952,0.35501 -2.979225,0.793581 -3.533203,1.769531 -2.136269,3.763491 -1.281985,8.728152 -1.955078,19.107422 -0.673093,10.37928 -0.812893,22.867097 -0.701172,34.910157 0.223442,24.0862 1.455078,46.392582 1.455078,46.392582 l 0.998047,-0.0566 c 0,0 -1.229946,-22.289861 -1.453125,-46.347661 -0.111589,-12.02896 0.0289,-24.499468 0.699219,-34.835938 0.670318,-10.33648 -0.06661,-15.343204 1.826172,-18.677734 0.230001,-0.40519 1.285901,-0.949766 2.871093,-1.285156 1.585193,-0.33538 3.650315,-0.534622 5.841797,-0.638672 4.382965,-0.20809 9.27204,-0.04222 11.990235,0.08008 0.65725,0.02956 11.582269,4.069224 12.271484,4.119141 L 66.5,18.335938 c -0.671568,-0.04754 -1.33217,-0.0882 -1.976562,-0.117188 -2.048512,-0.09214 -5.320413,-0.208372 -8.703126,-0.171875 z M 94.919922,30.75 c 2.48688,4.02139 0.716459,10.678887 -0.900391,14.712891 -1.636752,4.08367 -5.921222,8.057434 -14.009765,11.271484 -13.473782,5.3539 -20.535456,11.416318 -23.226563,17.767578 -2.691106,6.35125 -1.168232,6.131447 2.738281,12.185547 7.813027,12.1081 24.181841,22.64099 31.794922,27.65039 l 0.548828,-0.83594 c -7.623233,-5.016 -23.894163,-15.564319 -31.503906,-27.357419 -3.804871,-5.8965 -5.19056,-5.270733 -2.65625,-11.251953 2.53431,-5.98121 9.329781,-11.928109 22.673828,-17.230469 8.238626,-3.27368 12.793193,-7.392291 14.570313,-11.826171 C 96.631352,41.639046 98.227566,34.999705 96.066406,30.75 Z"
         style="color:#000000;font-style:normal;font-variant:normal;font-weight:normal;font-stretch:normal;font-size:medium;line-height:normal;font-family:sans-serif;text-indent:0;text-align:start;text-decoration:none;text-decoration-line:none;text-decoration-style:solid;text-decoration-color:#000000;letter-spacing:normal;word-spacing:normal;text-transform:none;direction:ltr;block-progression:tb;writing-mode:lr-tb;baseline-shift:baseline;text-anchor:start;white-space:normal;clip-rule:nonzero;display:inline;overflow:visible;visibility:visible;opacity:1;isolation:auto;mix-blend-mode:normal;color-interpolation:sRGB;color-interpolation-filters:linearRGB;solid-color:#000000;solid-opacity:1;fill:#000000;fill-opacity:1;fill-rule:evenodd;stroke:none;stroke-width:1px;stroke-linecap:butt;stroke-linejoin:miter;stroke-miterlimit:4;stroke-dasharray:none;stroke-dashoffset:0;stroke-opacity:1;filter:url(#filter8483);color-rendering:auto;image-rendering:auto;shape-rendering:auto;text-rendering:auto;enable-background:accumulate" />
      <path
         clip-path="url(#clipPath8524)"
         style="color:#000000;font-style:normal;font-variant:normal;font-weight:normal;font-stretch:normal;font-size:medium;line-height:normal;font-family:sans-serif;text-indent:0;text-align:start;text-decoration:none;text-decoration-line:none;text-decoration-style:solid;text-decoration-color:#000000;letter-spacing:normal;word-spacing:normal;text-transform:none;direction:ltr;block-progression:tb;writing-mode:lr-tb;baseline-shift:baseline;text-anchor:start;white-space:normal;clip-rule:nonzero;display:inline;overflow:visible;visibility:visible;opacity:0.22900002;isolation:auto;mix-blend-mode:normal;color-interpolation:sRGB;color-interpolation-filters:linearRGB;solid-color:#000000;solid-opacity:1;fill:#000000;fill-opacity:1;fill-rule:evenodd;stroke:none;stroke-width:1px;stroke-linecap:butt;stroke-linejoin:miter;stroke-miterlimit:4;stroke-dasharray:none;stroke-dashoffset:0;stroke-opacity:1;filter:url(#filter8483);color-rendering:auto;image-rendering:auto;shape-rendering:auto;text-rendering:auto;enable-background:accumulate"
         d="m 55.820312,18.046875 c -1.12757,0.01217 -2.268148,0.04101 -3.378906,0.09375 l 0,0.002 c -2.221516,0.10547 -4.324001,0.303193 -6.001953,0.658203 -1.677952,0.35501 -2.979225,0.793581 -3.533203,1.769531 -2.136269,3.763491 -1.281985,8.728152 -1.955078,19.107422 -0.673093,10.37928 -0.812893,22.867097 -0.701172,34.910157 0.223442,24.0862 1.455078,46.392582 1.455078,46.392582 l 0.998047,-0.0566 c 0,0 -1.229946,-22.289861 -1.453125,-46.347661 -0.111589,-12.02896 0.0289,-24.499468 0.699219,-34.835938 0.670318,-10.33648 -0.06661,-15.343204 1.826172,-18.677734 0.230001,-0.40519 1.285901,-0.949766 2.871093,-1.285156 1.585193,-0.33538 3.650315,-0.534622 5.841797,-0.638672 4.382965,-0.20809 9.27204,-0.04222 11.990235,0.08008 0.65725,0.02956 11.582269,4.069224 12.271484,4.119141 L 66.5,18.335938 c -0.671568,-0.04754 -1.33217,-0.0882 -1.976562,-0.117188 -2.048512,-0.09214 -5.320413,-0.208372 -8.703126,-0.171875 z M 94.919922,30.75 c 2.48688,4.02139 0.716459,10.678887 -0.900391,14.712891 -1.636752,4.08367 -5.921222,8.057434 -14.009765,11.271484 -13.473782,5.3539 -20.535456,11.416318 -23.226563,17.767578 -2.691106,6.35125 -1.168232,6.131447 2.738281,12.185547 7.813027,12.1081 24.181841,22.64099 31.794922,27.65039 l 0.548828,-0.83594 c -7.623233,-5.016 -23.894163,-15.564319 -31.503906,-27.357419 -3.804871,-5.8965 -5.19056,-5.270733 -2.65625,-11.251953 2.53431,-5.98121 9.329781,-11.928109 22.673828,-17.230469 8.238626,-3.27368 12.793193,-7.392291 14.570313,-11.826171 C 96.631352,41.639046 98.227566,34.999705 96.066406,30.75 Z"
         transform="translate(0,924.3622)"
         id="path8504"
         inkscape:connector-curvature="0"
         sodipodi:nodetypes="sccssssccssssscccsscssssccsssscc"
         mask="none" />
      <g
         transform="matrix(0,1,-1,0,1043.6122,954.11218)"
         id="g8129">
        <g
           transform="matrix(0.64083465,0,0,1,16.072649,0)"
           id="g8151">
          <ellipse
             ry="17.75"
             rx="15.75"
             cy="998.86218"
             cx="44.75"
             id="path8117"
             style="opacity:1;fill:#d3d7cf;fill-opacity:1;stroke:#888a85;stroke-width:3.46034122;stroke-linecap:round;stroke-linejoin:round;stroke-miterlimit:4;stroke-dasharray:none;stroke-opacity:1" />
          <ellipse
             style="opacity:1;fill:#eeeeec;fill-opacity:0.5826331;stroke:url(#linearGradient8127);stroke-width:1.73017061;stroke-linecap:round;stroke-linejoin:round;stroke-miterlimit:4;stroke-dasharray:none;stroke-opacity:1"
             id="ellipse8119"
             cx="44.75"
             cy="998.86224"
             rx="11.440113"
             ry="14.061728" />
        </g>
        <circle
           transform="matrix(0,-1,1,0,0,0)"
           r="1.75"
           cy="45.250019"
           cx="-1013.3622"
           id="path8135"
           style="opacity:1;fill:#888a85;fill-opacity:1;stroke:#555753;stroke-width:1.38503873;stroke-linecap:round;stroke-linejoin:round;stroke-miterlimit:4;stroke-dasharray:none;stroke-opacity:1" />
        <circle
           style="opacity:1;fill:#888a85;fill-opacity:1;stroke:#555753;stroke-width:1.38503873;stroke-linecap:round;stroke-linejoin:round;stroke-miterlimit:4;stroke-dasharray:none;stroke-opacity:1"
           id="circle8137"
           cx="-985.11218"
           cy="45.250019"
           r="1.75"
           transform="matrix(0,-1,1,0,0,0)" />
      </g>
      <g
         style="display:inline;fill:#eeeeec;fill-opacity:1;stroke:url(#linearGradient71345);stroke-width:25.01778984;stroke-miterlimit:4;stroke-dasharray:none"
         id="g6058"
         transform="matrix(0.01845112,0,0,0.01845698,26.146647,992.89597)">
        <path
           sodipodi:nodetypes="sccccsccccccccs"
           inkscape:connector-curvature="0"
           id="path5977"
           d="m 880.09375,118.75 c -19.76692,0.0993 -40.63522,0.94103 -62.59375,2.71875 0,0 208.8897,10.42967 85.875,446.78125 0,0 153.1916,-89.34971 271.5625,-105.59375 0,0 21.3194,-1.89296 31.1563,5.1875 -4.7863,-2.03232 -10.7238,-2.75493 -17.1876,-2.625 -14.6058,0.29361 -31.6428,4.79765 -44,7.8125 -1.8318,9.16525 -5.8663,28.38914 -10.0624,42.53125 -0.5735,0.15775 -1.1055,0.31023 -1.6876,0.46875 0,0 1.1144,-0.2913 1.6876,-0.4375 -0.021,0.0703 -0.042,0.14867 -0.063,0.21875 0,0 17.628,-4.03017 36.0313,-10.625 21.9745,-7.03836 46.7498,-16.4524 54.0313,-25.125 0,0 114.8662,-186.81555 -96.3438,-313.34375 0,0 -87.447,-48.77739 -248.40585,-47.96875 z"
           style="fill:#eeeeec;fill-opacity:1;fill-rule:nonzero;stroke:url(#linearGradient71389);stroke-width:25.01778984;stroke-linejoin:round;stroke-miterlimit:4;stroke-dasharray:none" />
      </g>
    </g>
  </g>
  <g
     inkscape:groupmode="layer"
     id="layer2"
     inkscape:label="Rope Texture"
     style="display:none">
    <path
       transform="translate(0,-924.3622)"
       style="fill:#e9b96e;fill-rule:evenodd;stroke:#c17d11;stroke-width:1px;stroke-linecap:butt;stroke-linejoin:miter;stroke-opacity:1"
       d="m -30.106236,921.47736 c 3.12428,-1.23447 2.84657,-10.02095 4.859992,-10.23877 2.013424,-0.21788 5.610278,0.0728 5.610278,0.0728 0,0 -1.994679,9.55978 -4.096277,10.16613 -2.013424,0.58092 -6.373993,0 -6.373993,0 z"
       id="path8097"
       inkscape:connector-curvature="0"
       sodipodi:nodetypes="cscscc" />
  </g>
</svg>
